/* XPM */
static char * king_xpm[] = {
"40 40 382 2",
"  	c #886570",
". 	c #8F6F75",
"+ 	c #967D7E",
"@ 	c #967D7F",
"# 	c #907177",
"$ 	c #93777A",
"% 	c #8F7076",
"& 	c #8E6D74",
"* 	c #755B69",
"= 	c #C1918E",
"- 	c #C39490",
"; 	c #C59993",
"> 	c #C39591",
", 	c #C49792",
"' 	c #C39390",
") 	c #C2938F",
"! 	c #C0928E",
"~ 	c #8C6C73",
"{ 	c #C2918E",
"] 	c #8D6C74",
"^ 	c #BD8B8A",
"/ 	c #C79E98",
"( 	c #BD8F8E",
"_ 	c #C09592",
": 	c #BA8688",
"< 	c #C49591",
"[ 	c #9F797D",
"} 	c #7B5E6B",
"| 	c #C49490",
"1 	c #7C5F6B",
"2 	c #8E6E75",
"3 	c #B98487",
"4 	c #BA8587",
"5 	c #957D7E",
"6 	c #957C7E",
"7 	c #8E6F75",
"8 	c #8D6D74",
"9 	c #745A68",
"0 	c #87646F",
"a 	c #92767A",
"b 	c #C49692",
"c 	c #BE8E8D",
"d 	c #C49A95",
"e 	c #BB8989",
"f 	c #9B8A8A",
"g 	c #9A8989",
"h 	c #917579",
"i 	c #917478",
"j 	c #C79D98",
"k 	c #C49691",
"l 	c #C39590",
"m 	c #AC8484",
"n 	c #82666E",
"o 	c #81646D",
"p 	c #84656F",
"q 	c #B88B89",
"r 	c #82646D",
"s 	c #82636D",
"t 	c #8A6971",
"u 	c #AA8182",
"v 	c #86676F",
"w 	c #8D6B73",
"x 	c #C1908E",
"y 	c #B1777F",
"z 	c #BA8B8A",
"A 	c #A0474B",
"B 	c #E98258",
"C 	c #F0B273",
"D 	c #865755",
"E 	c #8A5A57",
"F 	c #F0B173",
"G 	c #E5BB7E",
"H 	c #E6C689",
"I 	c #EEDD9D",
"J 	c #B7AB83",
"K 	c #EEC686",
"L 	c #BF8F8D",
"M 	c #C0938F",
"N 	c #836A71",
"O 	c #836770",
"P 	c #755D6A",
"Q 	c #C49590",
"R 	c #C19791",
"S 	c #A86555",
"T 	c #F08C5C",
"U 	c #F7C47E",
"V 	c #C98861",
"W 	c #CCA270",
"X 	c #AA6454",
"Y 	c #89484E",
"Z 	c #F5E2A0",
"` 	c #DEC58B",
" .	c #FAEBA7",
"..	c #82626C",
"+.	c #C79B95",
"@.	c #C89D96",
"#.	c #C79A94",
"$.	c #C2928F",
"%.	c #896570",
"&.	c #937D7F",
"*.	c #9C434A",
"=.	c #E78157",
"-.	c #EFBD7B",
";.	c #E99563",
">.	c #EFBC7A",
",.	c #EFBC7B",
"'.	c #ECB778",
").	c #E9B576",
"!.	c #F6E19E",
"~.	c #F3D290",
"{.	c #EBC383",
"].	c #614E60",
"^.	c #978182",
"/.	c #988384",
"(.	c #947B7D",
"_.	c #C59893",
":.	c #9F7D7F",
"<.	c #536479",
"[.	c #3C425B",
"}.	c #4C5F77",
"|.	c #56687D",
"1.	c #697B87",
"2.	c #647482",
"3.	c #758A94",
"4.	c #536071",
"5.	c #A1A5AB",
"6.	c #576676",
"7.	c #A2A5AB",
"8.	c #A79EA1",
"9.	c #BC8F8C",
"0.	c #C69A95",
"a.	c #C69B96",
"b.	c #BD8B8B",
"c.	c #BF9290",
"d.	c #C08F8D",
"e.	c #C29490",
"f.	c #C9A19A",
"g.	c #B6918D",
"h.	c #9E797C",
"i.	c #BC8889",
"j.	c #AE717C",
"k.	c #534157",
"l.	c #4C4C62",
"m.	c #4D3D55",
"n.	c #524B61",
"o.	c #564F64",
"p.	c #5D5A69",
"q.	c #5B5B69",
"r.	c #636773",
"s.	c #555262",
"t.	c #79767F",
"u.	c #565162",
"v.	c #78727C",
"w.	c #666471",
"x.	c #B28786",
"y.	c #AE727C",
"z.	c #AD707B",
"A.	c #775263",
"B.	c #8C3A54",
"C.	c #D8474B",
"D.	c #DB4849",
"E.	c #DD504C",
"F.	c #D2756A",
"G.	c #D3AA97",
"H.	c #E4BFAA",
"I.	c #DFBAA5",
"J.	c #C47369",
"K.	c #D95752",
"L.	c #574A5B",
"M.	c #B88C8A",
"N.	c #C08E8C",
"O.	c #A96D79",
"P.	c #9A404E",
"Q.	c #DB4A49",
"R.	c #E46355",
"S.	c #ED735E",
"T.	c #E3C8B4",
"U.	c #E4CDB9",
"V.	c #EF9882",
"W.	c #EF957F",
"X.	c #ED9A84",
"Y.	c #DDC6B3",
"Z.	c #E8816E",
"`.	c #81636C",
" +	c #8F7176",
".+	c #8F6F76",
"++	c #8C6A73",
"@+	c #85616E",
"#+	c #85616D",
"$+	c #7F5D6B",
"%+	c #763755",
"&+	c #D4484D",
"*+	c #EC725D",
"=+	c #EF765F",
"-+	c #F07961",
";+	c #F17F64",
">+	c #E4745F",
",+	c #865B5A",
"'+	c #EC7E64",
")+	c #EB765F",
"!+	c #604E60",
"~+	c #C19390",
"{+	c #7C6068",
"]+	c #7D5F68",
"^+	c #7E6069",
"/+	c #7D5F69",
"(+	c #AC717B",
"_+	c #353550",
":+	c #873E4F",
"<+	c #DD4E4B",
"[+	c #EB6F5B",
"}+	c #F07860",
"|+	c #F18165",
"1+	c #F17B61",
"2+	c #F48567",
"3+	c #F28366",
"4+	c #70616C",
"5+	c #CFDCDE",
"6+	c #D7E1E2",
"7+	c #E3EAEA",
"8+	c #B5CACE",
"9+	c #D6E0E2",
"0+	c #90ADB7",
"a+	c #877173",
"b+	c #DAA793",
"c+	c #6C4D59",
"d+	c #953657",
"e+	c #CA5852",
"f+	c #E05950",
"g+	c #EF775F",
"h+	c #ED735D",
"i+	c #EE755E",
"j+	c #EE745E",
"k+	c #DF6154",
"l+	c #7A616A",
"m+	c #C1938F",
"n+	c #645865",
"o+	c #9CB9C1",
"p+	c #96B4BD",
"q+	c #89A7B3",
"r+	c #8BA8B4",
"s+	c #7F99A9",
"t+	c #5B4A5E",
"u+	c #7F5365",
"v+	c #E4CDB8",
"w+	c #E9C9B3",
"x+	c #AE7B71",
"y+	c #2C3550",
"z+	c #B43C54",
"A+	c #B0494F",
"B+	c #E15950",
"C+	c #DD4D4A",
"D+	c #E46154",
"E+	c #D9544E",
"F+	c #BD4A4D",
"G+	c #D74A4A",
"H+	c #807576",
"I+	c #987C7C",
"J+	c #655865",
"K+	c #9EBBC2",
"L+	c #809AA9",
"M+	c #8CA9B5",
"N+	c #809AAA",
"O+	c #59485D",
"P+	c #7B5164",
"Q+	c #D2BDAB",
"R+	c #504859",
"S+	c #B87A6E",
"T+	c #A26C66",
"U+	c #4A3751",
"V+	c #6B3853",
"W+	c #CA4350",
"X+	c #733952",
"Y+	c #C74151",
"Z+	c #B03858",
"`+	c #873755",
" @	c #693952",
".@	c #947875",
"+@	c #776167",
"@@	c #A98283",
"#@	c #6B6571",
"$@	c #BD8F8C",
"%@	c #565060",
"&@	c #9DBAC2",
"*@	c #8CAAB5",
"=@	c #7F9AAA",
"-@	c #434057",
";@	c #3F3750",
">@	c #485A72",
",@	c #5F7082",
"'@	c #6A7F8E",
")@	c #718692",
"!@	c #7F929A",
"~@	c #8E9DA3",
"{@	c #91A0A6",
"]@	c #B4B7BA",
"^@	c #B4B9BC",
"/@	c #81959D",
"(@	c #768A95",
"_@	c #6D808E",
":@	c #627586",
"<@	c #41415A",
"[@	c #63707D",
"}@	c #C8D9DC",
"|@	c #594D5E",
"1@	c #454158",
"2@	c #4A3D54",
"3@	c #4E485E",
"4@	c #4E4D62",
"5@	c #4E5265",
"6@	c #515567",
"7@	c #555A6A",
"8@	c #5C5F6E",
"9@	c #5E616F",
"0@	c #6E6D78",
"a@	c #6F6D79",
"b@	c #575C6B",
"c@	c #525768",
"d@	c #4F5265",
"e@	c #575466",
"f@	c #4E4358",
"g@	c #4F566A",
"h@	c #83A0AD",
"i@	c #735C67",
"j@	c #625564",
"k@	c #94B1BB",
"l@	c #95B2BB",
"m@	c #7F99AA",
"n@	c #625262",
"o@	c #9E797A",
"p@	c #384A62",
"q@	c #38636F",
"r@	c #376370",
"s@	c #396871",
"t@	c #3C7776",
"u@	c #386771",
"v@	c #3A6C73",
"w@	c #386370",
"x@	c #37596A",
"y@	c #4B4158",
"z@	c #B28887",
"A@	c #9E7A7D",
"B@	c #765E6A",
"C@	c #84646C",
"D@	c #839DAC",
"E@	c #849EAC",
"F@	c #615261",
"G@	c #9D7779",
"H@	c #2D7A85",
"I@	c #306679",
"J@	c #405463",
"K@	c #415665",
"L@	c #426168",
"M@	c #415664",
"N@	c #415965",
"O@	c #3F5767",
"P@	c #267A89",
"Q@	c #4C4F60",
"R@	c #BF908D",
"S@	c #896670",
"T@	c #856A72",
"U@	c #768C9B",
"V@	c #697C8F",
"W@	c #6A7D8F",
"X@	c #5F7489",
"Y@	c #84676F",
"Z@	c #32566E",
"`@	c #977377",
" #	c #BB8E8C",
".#	c #384B63",
"+#	c #78616C",
"@#	c #80676E",
"##	c #836D72",
"$#	c #80666E",
"%#	c #7D626B",
"&#	c #876A71",
"*#	c #7E636C",
"=#	c #937C7D",
"-#	c #88797C",
";#	c #988788",
">#	c #745D69",
",#	c #876570",
"  . . + + @ # $ % . . . . . . . . . & *   . . + + @ # $ % . . . . . . . . . & * ",
"= - - ; ; ; > , - - - - ' - ) ) ) - ! ~ { - - ; ; ; > , - - - - ' - ) ) ) - ! ] ",
"- - - - - - - - - - - - ^ / ( _ : < [ } | - - - - - - - - - - - ^ / ( _ : < [ 1 ",
"- - - - - - - - - - - - - > > < - - - 2 | - - - - - - - - - - - - > > < - - - . ",
"3 | | | | | | | | | | | | | | | | | {   4 | | | | | | | | | | | | | | | | | {   ",
"5 6 2 7 7 7 7 7 8 9 0 7 a # 5 5 6 2 7 . 5 6 2 7 7 7 7 7 8 9 0 7 a # 5 5 6 2 7 . ",
"; ; - - ' ' ) - ! ~ { - , < ; ; ; - - - ; ; - - ' ' ) - ! ~ { - , < ; ; ; - - - ",
"- - - b c d e < [ } | - - - - - - - - - - - - b c d e < [ } | - - - - - - - - - ",
"- - - - - < - - - 2 | - - - - - - - - - - - - - - < - - - 2 | - - - - - - - - - ",
"| | | | | | | | {   4 | | | | | | | | | | | | | | | | | {   4 | | | | | | | | | ",
"0 7 a # 5 f g h 6 i 7 7 7 7 7 7 7 7 8 9 0 7 a # 5 f g h 6 i 7 7 7 7 7 7 7 7 8 9 ",
"= - , < ; j j b ; k - - - - - - - - - 8 { - , < ; j j b ; k - - - - - - - - - & ",
"- - - - - - - - - - - - - - l - m n o p q o r s t u v - - - - - - - l - - < | w ",
"- - - - - - - - - - - - - x y z A B C D E F G H I J K v - - - - - x y L M N O P ",
"3 | | | | | | | | | | | | | Q R S T U V W U X Y Z `  ...| | | | | | Q +.@.#.$.%.",
"7 7 7 7 7 7 7 7 8 9 0 7 a # 5 &.*.=.-.;.>.,.'.).!.~.{.].8 9 0 7 a # 5 ^.f /.(.. ",
"- - ' ) - - - ) ! ~ { - , > _.:.<.[.}.|.1.2.3.4.5.6.7.8.9.8 { - , < ; 0.j a._.- ",
"- - b.c.d.e.f.g.h.} | - - i.j.k.l.m.n.o.p.q.r.s.t.u.v.w.x.7 | - - - - - - - - - ",
"- - - > - - < l - 2 | - l y.z.A.B.C.D.E.F.G.H.H.I.J.K.L.M.7 | - - - - - - - - - ",
"| | | | | | | | {   4 | N.j.z.O.P.Q.R.S.T.U.V.W.X.Y.Z.`.{   4 | | | | | | | | | ",
"0 7 2 6 5 5  +a .+. 7 7 ++@+#+$+%+&+*+=+-+;+>+,+'+-+)+!+7 . 7 7 7 7 7 7 7 7 8 9 ",
"= - - ; ; ; ~+{+]+]+^+]+/+(+z.O._+:+<+[+}+|+1+2+3+}+)+n - - - - ' - ) ) ) - ! ] ",
"- - - - - - 4+5+6+7+8+9+0+!+O.a+b+c+d+e+f+g+h+}+i+j+k+l+m+- - - ^ / ( _ : < [ 1 ",
"- - - - - - n+o+p+q+r+p+s+t+u+v+w+x+y+z+A+B+C+D+E+F+G+H+I+- - - - > > < - - - . ",
"3 | | | | | J+K+L+M+M+N+N+O+P+Q+R+S+T+U+V+W+X+Y+Z+`+ @.@+@@@#@$@| | | | | | {   ",
"5 6 2 7 7 7 %@&@M+M+M+*@=@-@;@>@,@'@)@!@~@{@]@^@/@(@_@:@<@[@}@|@a # 5 5 6 2 7 . ",
"; ; - - ' ' n+&@M+M+M+M+=@1@2@3@4@5@6@7@8@9@0@a@b@c@d@e@f@g@h@i@, < ; ; ; - - - ",
"- - - b c d j@&@k@M+M+l@m@n@l l o@p@q@r@s@t@u@v@w@x@y@z@A@B@C@- - - - - - - - - ",
"- - - - - < n+&@D@M+M+E@=@F@- - G@H@I@J@K@L@M@N@O@P@Q@) R@S@| - - - - - - - - - ",
"| | | | | | T@U@V@V@V@W@X@Y@| | G@Z@`@| | | | -  #.#+#| {   4 | | | | | | | | | ",
"0 7 a # 5 f g @###$#%#%#%#7 7 7 &#*#8 9 0 7 a # =#-#;#h 6 i 7 7 7 7 7 7 7 7 8 9 ",
"= - , < ; j j b ; k - - - - - - - - - 8 { - , < ; j j b ; k - - - - - - - - - & ",
"- - - - - - - - - - - - - - l - - < | ++| - - - - - - - - - - - - - l - - < | w ",
"- - - - - - - - - - - - - x y L M N O >#| - - - - - - - - - - - - x y L M N O P ",
"3 | | | | | | | | | | | | | Q +.@.#.$.  4 | | | | | | | | | | | | | Q +.@.#.$.%.",
"7 7 7 7 7 7 7 7 8 9 0 7 a # 5 ^.f /.(.. 7 7 7 7 7 7 7 7 8 9 0 7 a # 5 ^.f /.(.. ",
"- - ' ) - - - ) ! ~ { - , < ; 0.j a._.- - - ' ) - - - ) ! ~ { - , < ; 0.j a._.- ",
"- - b.c.d.e.f.g.h.} | - - - - - - - - - - - b.c.d.e.f.g.h.} | - - - - - - - - - ",
"- - - > - - < l - 2 | - - - - - - - - - - - - > - - < l - 2 | - - - - - - - - - ",
"- - - - - - - - = ,#3 - - - - - - - - - - - - - - - - - = ,#3 - - - - - - - - - "};
