/* XPM */
static char * king_door_xpm[] = {
"40 40 723 2",
"  	c #886570",
". 	c #8F6F75",
"+ 	c #967D7E",
"@ 	c #967D7F",
"# 	c #907177",
"$ 	c #93777A",
"% 	c #927476",
"& 	c #81636D",
"* 	c #937777",
"= 	c #937878",
"- 	c #93807F",
"; 	c #937A7A",
"> 	c #938381",
", 	c #937B7B",
"' 	c #8F6E73",
") 	c #755D69",
"! 	c #8E6C72",
"~ 	c #937677",
"{ 	c #937D7C",
"] 	c #937B7A",
"^ 	c #938281",
"/ 	c #93817F",
"( 	c #927475",
"_ 	c #8E6D74",
": 	c #755B69",
"< 	c #C1918E",
"[ 	c #C39490",
"} 	c #C59993",
"| 	c #AE7E7D",
"1 	c #C59E90",
"2 	c #FCC7AC",
"3 	c #C7968C",
"4 	c #FBC7AC",
"5 	c #FDCBAF",
"6 	c #FDCDB1",
"7 	c #FCDCBF",
"8 	c #FDD2B6",
"9 	c #FCE1C5",
"0 	c #FDD4B7",
"a 	c #F6BCA5",
"b 	c #927174",
"c 	c #F1B7A2",
"d 	c #FCD7BB",
"e 	c #FDD3B6",
"f 	c #FCDCC0",
"g 	c #FCE0C4",
"h 	c #FCDDC1",
"i 	c #C2938F",
"j 	c #C0928E",
"k 	c #8D6C74",
"l 	c #BB8582",
"m 	c #D8C1AF",
"n 	c #F5D7BF",
"o 	c #FCCBAF",
"p 	c #CCA594",
"q 	c #FBCAAE",
"r 	c #FBC9AD",
"s 	c #957878",
"t 	c #F7C7AC",
"u 	c #BA8688",
"v 	c #C49591",
"w 	c #9F797D",
"x 	c #7C5F6B",
"y 	c #BE8B85",
"z 	c #F3D3BB",
"A 	c #FBD3B7",
"B 	c #FBCDB1",
"C 	c #FAC8AD",
"D 	c #F7BFA8",
"E 	c #C28C86",
"F 	c #F9C7AC",
"G 	c #FAC7AC",
"H 	c #F0B19F",
"I 	c #906D72",
"J 	c #EBAB9B",
"K 	c #F9C6AC",
"L 	c #B98487",
"M 	c #C49490",
"N 	c #AD807E",
"O 	c #F7CFB7",
"P 	c #F7C1A8",
"Q 	c #EA9E94",
"R 	c #E38889",
"S 	c #B8737A",
"T 	c #AB7077",
"U 	c #CD8082",
"V 	c #CD7F82",
"W 	c #CD7F81",
"X 	c #85616C",
"Y 	c #CA7D80",
"Z 	c #C2918E",
"` 	c #957D7E",
" .	c #916C72",
"..	c #D7A595",
"+.	c #F5BDA6",
"@.	c #E89A92",
"#.	c #DD8687",
"$.	c #B07077",
"%.	c #92606D",
"&.	c #755B6A",
"*.	c #8B6370",
"=.	c #906471",
"-.	c #906571",
";.	c #85606F",
">.	c #6F5968",
",.	c #6D5A68",
"'.	c #636676",
").	c #695866",
"!.	c #715A69",
"~.	c #886170",
"{.	c #9F7E7B",
"].	c #E99E94",
"^.	c #DD8787",
"/.	c #92666F",
"(.	c #6C5867",
"_.	c #7A5C6C",
":.	c #9C6977",
"<.	c #AC6F7B",
"[.	c #AD707B",
"}.	c #AA6F7A",
"|.	c #7F5E6C",
"1.	c #6D5B69",
"2.	c #607384",
"3.	c #6D5967",
"4.	c #87616E",
"5.	c #AB6F7B",
"6.	c #87686F",
"7.	c #EEB19F",
"8.	c #FBCBAE",
"9.	c #F2B3A0",
"0.	c #E38F8C",
"a.	c #87626D",
"b.	c #6F5967",
"c.	c #745B69",
"d.	c #795C6A",
"e.	c #7B5D6B",
"f.	c #7C5D6B",
"g.	c #705A68",
"h.	c #6E5967",
"i.	c #705A67",
"j.	c #735A68",
"k.	c #725A68",
"l.	c #8B7073",
"m.	c #EBA297",
"n.	c #C97D80",
"o.	c #7B5D6A",
"p.	c #815F6E",
"q.	c #A16B78",
"r.	c #B0737C",
"s.	c #B47B80",
"t.	c #B67E83",
"u.	c #B57E83",
"v.	c #B47A80",
"w.	c #A56E79",
"x.	c #667888",
"y.	c #785C6A",
"z.	c #8B656F",
"A.	c #916F75",
"B.	c #927277",
"C.	c #927177",
"D.	c #8F6C73",
"E.	c #89636F",
"F.	c #7D5D6C",
"G.	c #896B71",
"H.	c #F6BBA5",
"I.	c #FDCCAF",
"J.	c #F8C1A9",
"K.	c #EA9A92",
"L.	c #8D646E",
"M.	c #A56C79",
"N.	c #AE707B",
"O.	c #B67E82",
"P.	c #C3938F",
"Q.	c #C3928E",
"R.	c #B67D82",
"S.	c #815F6C",
"T.	c #6E5C6A",
"U.	c #72828F",
"V.	c #8A626F",
"W.	c #BA8184",
"X.	c #C4938F",
"Y.	c #C59691",
"Z.	c #735C69",
"`.	c #937074",
" +	c #977A79",
".+	c #947375",
"++	c #8F6770",
"@+	c #755B68",
"#+	c #7A5D6A",
"$+	c #80626D",
"%+	c #846870",
"&+	c #846770",
"*+	c #80636E",
"=+	c #6E5B69",
"-+	c #647686",
";+	c #765C69",
">+	c #81646E",
",+	c #836770",
"'+	c #7D5F6C",
")+	c #876870",
"!+	c #F0B4A0",
"~+	c #F9C9AD",
"{+	c #F4BBA5",
"]+	c #E6968F",
"^+	c #8E646F",
"/+	c #6B5F6E",
"(+	c #6E6371",
"_+	c #7D6371",
":+	c #B17F82",
"<+	c #C29490",
"[+	c #C29390",
"}+	c #B57F83",
"|+	c #79606D",
"1+	c #6E7E8D",
"2+	c #82616D",
"3+	c #B88386",
"4+	c #8B7477",
"5+	c #FAD6BA",
"6+	c #ECA397",
"7+	c #8F656F",
"8+	c #697F8E",
"9+	c #78919D",
"0+	c #667685",
"a+	c #987679",
"b+	c #AC8484",
"c+	c #81666E",
"d+	c #81646D",
"e+	c #76606C",
"f+	c #627283",
"g+	c #5D4C5F",
"h+	c #82656E",
"i+	c #82636D",
"j+	c #8A6971",
"k+	c #AA8182",
"l+	c #86676F",
"m+	c #8B7A7B",
"n+	c #FAE4C8",
"o+	c #FBCBAF",
"p+	c #8F646F",
"q+	c #6F6976",
"r+	c #74727D",
"s+	c #7D6976",
"t+	c #AF7E82",
"u+	c #C49590",
"v+	c #BE908D",
"w+	c #A0474B",
"x+	c #E98258",
"y+	c #F0B273",
"z+	c #875855",
"A+	c #865957",
"B+	c #F0B173",
"C+	c #E5BB7E",
"D+	c #E6C689",
"E+	c #EEDD9D",
"F+	c #B7AB83",
"G+	c #EEC686",
"H+	c #8B7274",
"I+	c #FACEB2",
"J+	c #90646F",
"K+	c #A26E78",
"L+	c #B88B8A",
"M+	c #B98D8B",
"N+	c #BD8F8C",
"O+	c #BE918D",
"P+	c #B88C8A",
"Q+	c #A86555",
"R+	c #F08C5C",
"S+	c #F7C47E",
"T+	c #C98861",
"U+	c #CCA270",
"V+	c #AA6454",
"W+	c #89484E",
"X+	c #F5E2A0",
"Y+	c #DEC58B",
"Z+	c #FAEBA7",
"`+	c #7E606B",
" @	c #8B7779",
".@	c #FADDC1",
"+@	c #8F646E",
"@@	c #6B5766",
"#@	c #9C434A",
"$@	c #E78157",
"%@	c #EFBD7B",
"&@	c #E99563",
"*@	c #EFBC7A",
"=@	c #EFBC7B",
"-@	c #ECB778",
";@	c #E9B576",
">@	c #F6E19E",
",@	c #F3D290",
"'@	c #EBC383",
")@	c #604D5F",
"!@	c #8C6D74",
"~@	c #8B6D74",
"{@	c #81606D",
"]@	c #825F6E",
"^@	c #946672",
"/@	c #7A5868",
"(@	c #536479",
"_@	c #3C425B",
":@	c #4C5F77",
"<@	c #56687D",
"[@	c #697B87",
"}@	c #647482",
"|@	c #758A94",
"1@	c #536071",
"2@	c #A1A5AB",
"3@	c #576676",
"4@	c #A2A5AB",
"5@	c #A79EA1",
"6@	c #BD8F8D",
"7@	c #B58385",
"8@	c #90656F",
"9@	c #FAC9AE",
"0@	c #A46C78",
"a@	c #534157",
"b@	c #4C4C62",
"c@	c #4D3D55",
"d@	c #524B61",
"e@	c #564F64",
"f@	c #5D5A69",
"g@	c #5B5B69",
"h@	c #636773",
"i@	c #555262",
"j@	c #79767F",
"k@	c #565162",
"l@	c #78727C",
"m@	c #666471",
"n@	c #B28786",
"o@	c #84666E",
"p@	c #E4A999",
"q@	c #EEC0A7",
"r@	c #E8B19E",
"s@	c #DB8E8A",
"t@	c #8C636E",
"u@	c #8E6373",
"v@	c #A56D78",
"w@	c #A66D78",
"x@	c #735162",
"y@	c #8C3A54",
"z@	c #D8474B",
"A@	c #DB4849",
"B@	c #DD504C",
"C@	c #D2756A",
"D@	c #D3AA97",
"E@	c #E4BFAA",
"F@	c #DFBAA5",
"G@	c #C47369",
"H@	c #D95752",
"I@	c #54485A",
"J@	c #B08785",
"K@	c #BA8E8B",
"L@	c #BA8D8B",
"M@	c #A47079",
"N@	c #775E6A",
"O@	c #AA7F7D",
"P@	c #B18F86",
"Q@	c #AD8580",
"R@	c #A57176",
"S@	c #87626E",
"T@	c #937277",
"U@	c #937378",
"V@	c #8F7076",
"W@	c #9A404E",
"X@	c #DB4A49",
"Y@	c #E46355",
"Z@	c #ED735E",
"`@	c #E3C8B4",
" #	c #E4CDB9",
".#	c #EF9882",
"+#	c #EF957F",
"@#	c #ED9A84",
"##	c #DDC6B3",
"$#	c #E8816E",
"%#	c #645362",
"&#	c #86626E",
"*#	c #8A6D72",
"=#	c #FAC6AC",
"-#	c #EB9E94",
";#	c #91656F",
">#	c #B78687",
",#	c #BE918E",
"'#	c #763755",
")#	c #D4484D",
"!#	c #EC725D",
"~#	c #EF765F",
"{#	c #F07961",
"]#	c #F17F64",
"^#	c #E4745F",
"/#	c #865B5A",
"(#	c #EC7E64",
"_#	c #EB765F",
":#	c #83676F",
"<#	c #8B787A",
"[#	c #FAE0C4",
"}#	c #EBA397",
"|#	c #7B5E67",
"1#	c #7D5F68",
"2#	c #7E6069",
"3#	c #7D6069",
"4#	c #C1938F",
"5#	c #353550",
"6#	c #873E4F",
"7#	c #DD4E4B",
"8#	c #EB6F5B",
"9#	c #F07860",
"0#	c #F18165",
"a#	c #F17B61",
"b#	c #F48567",
"c#	c #F28366",
"d#	c #82666E",
"e#	c #BC8E8C",
"f#	c #FADEC2",
"g#	c #665867",
"h#	c #CFDCDE",
"i#	c #D7E1E2",
"j#	c #E3EAEA",
"k#	c #B5CACE",
"l#	c #D6E0E2",
"m#	c #90ADB7",
"n#	c #625463",
"o#	c #B18787",
"p#	c #897475",
"q#	c #DAA793",
"r#	c #6C4D59",
"s#	c #953657",
"t#	c #CA5852",
"u#	c #E05950",
"v#	c #EF775F",
"w#	c #ED735D",
"x#	c #EE755E",
"y#	c #EE745E",
"z#	c #DF6154",
"A#	c #725B66",
"B#	c #B38987",
"C#	c #B58A88",
"D#	c #B48988",
"E#	c #A06D77",
"F#	c #4F4C5E",
"G#	c #9CB9C1",
"H#	c #96B4BD",
"I#	c #89A7B3",
"J#	c #8BA8B4",
"K#	c #7F99A9",
"L#	c #4A445A",
"M#	c #4F4258",
"N#	c #E4CDB8",
"O#	c #E9C9B3",
"P#	c #AE7B71",
"Q#	c #2C3550",
"R#	c #B43C54",
"S#	c #B0494F",
"T#	c #E15950",
"U#	c #DD4D4A",
"V#	c #E46154",
"W#	c #D9544E",
"X#	c #BD4A4D",
"Y#	c #D74A4A",
"Z#	c #807576",
"`#	c #867174",
" $	c #9B787B",
".$	c #9B777B",
"+$	c #8C6470",
"@$	c #8B7375",
"#$	c #FAD1B5",
"$$	c #504C5E",
"%$	c #9EBBC2",
"&$	c #809AA9",
"*$	c #8CA9B5",
"=$	c #809AAA",
"-$	c #55475C",
";$	c #724D61",
">$	c #D2BDAB",
",$	c #504859",
"'$	c #B87A6E",
")$	c #A26C66",
"!$	c #4A3751",
"~$	c #6B3853",
"{$	c #CA4350",
"]$	c #733952",
"^$	c #C74151",
"/$	c #B03858",
"($	c #873755",
"_$	c #693952",
":$	c #947875",
"<$	c #776167",
"[$	c #A98283",
"}$	c #6B6571",
"|$	c #B88888",
"1$	c #514C5E",
"2$	c #9DBAC2",
"3$	c #8CAAB5",
"4$	c #7F9AAA",
"5$	c #434057",
"6$	c #3F3750",
"7$	c #485A72",
"8$	c #5F7082",
"9$	c #6A7F8E",
"0$	c #718692",
"a$	c #7F929A",
"b$	c #8E9DA3",
"c$	c #91A0A6",
"d$	c #B4B7BA",
"e$	c #B4B9BC",
"f$	c #81959D",
"g$	c #768A95",
"h$	c #6D808E",
"i$	c #627586",
"j$	c #41415A",
"k$	c #63707D",
"l$	c #C8D9DC",
"m$	c #6C5865",
"n$	c #BB8D8B",
"o$	c #8A6E72",
"p$	c #F9C3AA",
"q$	c #EB9F95",
"r$	c #444057",
"s$	c #483C53",
"t$	c #4C475D",
"u$	c #4C4D62",
"v$	c #4E5265",
"w$	c #515567",
"x$	c #555A6A",
"y$	c #5C5F6E",
"z$	c #5E616F",
"A$	c #6E6D78",
"B$	c #6F6D79",
"C$	c #575C6B",
"D$	c #525768",
"E$	c #4F5265",
"F$	c #545365",
"G$	c #4B4157",
"H$	c #52576B",
"I$	c #83A0AD",
"J$	c #695663",
"K$	c #AF8585",
"L$	c #9B6A75",
"M$	c #795F6A",
"N$	c #B38581",
"O$	c #BB978B",
"P$	c #B68B84",
"Q$	c #AE7579",
"R$	c #7E5E6A",
"S$	c #584E60",
"T$	c #94B1BB",
"U$	c #95B2BB",
"V$	c #7F99AA",
"W$	c #584C5E",
"X$	c #A47E80",
"Y$	c #80606B",
"Z$	c #384A62",
"`$	c #38636F",
" %	c #376370",
".%	c #396871",
"+%	c #3C7776",
"@%	c #386771",
"#%	c #3A6C73",
"$%	c #386370",
"%%	c #37596A",
"&%	c #413D55",
"*%	c #6A5766",
"=%	c #645363",
"-%	c #514257",
";%	c #7D5E6A",
">%	c #83656D",
",%	c #DFA496",
"'%	c #E9BCA4",
")%	c #E2AC9B",
"!%	c #D68B88",
"~%	c #8B646E",
"{%	c #625664",
"]%	c #839DAC",
"^%	c #849EAC",
"/%	c #615261",
"(%	c #9D7579",
"_%	c #2D7A85",
":%	c #2E6679",
"<%	c #3D5463",
"[%	c #3D5564",
"}%	c #3E6168",
"|%	c #3E5664",
"1%	c #3E5864",
"2%	c #3C5566",
"3%	c #267A89",
"4%	c #474A5E",
"5%	c #A36C78",
"6%	c #906473",
"7%	c #715A68",
"8%	c #89626D",
"9%	c #8B7174",
"0%	c #FACDB1",
"a%	c #EBA296",
"b%	c #80666F",
"c%	c #768C9B",
"d%	c #697C8F",
"e%	c #6A7D8F",
"f%	c #5F7489",
"g%	c #9C7679",
"h%	c #32566E",
"i%	c #5D6474",
"j%	c #839BA3",
"k%	c #706572",
"l%	c #778F9B",
"m%	c #7D8B94",
"n%	c #906370",
"o%	c #A56C78",
"p%	c #384B63",
"q%	c #6C5163",
"r%	c #A86E7A",
"s%	c #735B68",
"t%	c #956773",
"u%	c #926F75",
"v%	c #937075",
"w%	c #927075",
"x%	c #A78081",
"y%	c #A78082",
"z%	c #987077",
"A%	c #725463",
"B%	c #717F8D",
"C%	c #788F9B",
"D%	c #7E8B94",
"E%	c #795A6A",
"F%	c #8F6371",
"G%	c #855C6A",
"H%	c #956672",
"I%	c #976773",
"J%	c #865F6F",
"K%	c #6E5867",
"L%	c #8B7376",
"M%	c #FAD2B7",
"N%	c #996A75",
"O%	c #AB8383",
"P%	c #AC8384",
"Q%	c #A87C7E",
"R%	c #85636D",
"S%	c #667686",
"T%	c #819AA3",
"U%	c #6E8895",
"V%	c #8C666E",
"W%	c #AA7F80",
"X%	c #AB8384",
"Y%	c #AB8484",
"Z%	c #AD8484",
"`%	c #A88182",
" &	c #FADFC3",
".&	c #FBCAAD",
"+&	c #775F6D",
"@&	c #7D6771",
"#&	c #8C6974",
"$&	c #C39590",
"%&	c #B37E82",
"&&	c #816470",
"*&	c #627182",
"=&	c #6E606D",
"-&	c #8C6A75",
";&	c #B78385",
">&	c #7B646F",
",&	c #6F8391",
"'&	c #7E97A1",
")&	c #6C7988",
"!&	c #9A767A",
"~&	c #BD8987",
"{&	c #7B626D",
"]&	c #647786",
"^&	c #86666F",
"/&	c #BF8B89",
"(&	c #676979",
"_&	c #6E7280",
":&	c #736877",
"<&	c #AB7C80",
"[&	c #BC8989",
"}&	c #7B636F",
"|&	c #71818F",
"1&	c #896C73",
"2&	c #886970",
"3&	c #F2B7A2",
"4&	c #F6BEA6",
"5&	c #E79790",
"6&	c #6E5866",
"7&	c #745B68",
"8&	c #866570",
"9&	c #8A6C73",
"0&	c #83626E",
"a&	c #715D6B",
"b&	c #755E6A",
"c&	c #735C68",
"d&	c #906E73",
"e&	c #917174",
"f&	c #8C666F",
"g&	c #926474",
"h&	c #A96E7A",
"i&	c #9D6977",
"j&	c #637686",
"k&	c #80606D",
"l&	c #B48083",
"m&	c #BF928E",
"n&	c #BF918E",
"o&	c #A9737C",
"p&	c #896A70",
"q&	c #F4B9A3",
"r&	c #F7C0A8",
"s&	c #E99991",
"t&	c #A26B78",
"u&	c #7E5E6C",
"v&	c #6C7D8C",
"w&	c #896B73",
"x&	c #BD908D",
"y&	c #91666F",
"z&	c #8B7678",
"A&	c #FADABE",
"B&	c #7D5D6D",
"C&	c #8C6370",
"D&	c #8D6370",
"E&	c #84606E",
"F&	c #6B7C8B",
"G&	c #84646F",
"H&	c #BD898A",
"I&	c #B37F83",
"J&	c #8B797B",
"K&	c #FAE3C7",
"L&	c #7E616C",
"M&	c #82666F",
"N&	c #81666F",
"  . . + + @ # $ % & & % * = - ; > , ' ) ! ~ ~ { ] - ^ / ( & & % . . . . . . _ : ",
"< [ [ } } } | 1 2 3 3 4 5 6 7 8 9 0 a b c 5 5 d e f g h 4 3 3 2 1 | i i i [ j k ",
"[ [ [ [ l m n o o p p o q q q q r q q s t q q q q q r q o p p o o n m l u v w x ",
"[ [ [ y z A B C D E E D F F F F F G H I J K F F F F F F D E E D C B A z y [ [ . ",
"L M N O A q P Q R S T U V V V V V V W X Y V V V V V V V U T S R Q P q A O N Z   ",
"`  ...o q +.@.#.$.%.&.*.=.=.=.=.-.;.>.,.'.).!.~.-.=.=.=.*.&.%.$.#.@.+.q o .. .. ",
"} {.4 q q ].^./.(._.:.<.[.[.[.[.[.}.|.1.2.3.4.5.[.[.[.[.<.:._.(./.^.].q q 4 {.[ ",
"6.7.q 8.9.0.a.b.c.d.e.f.f.f.f.f.f.d.g.1.2.h.i.j.j.j.j.j.j.k.b.h.h.a.0.9.8.q 7.6.",
"l.q q o m.n.o.p.q.r.s.t.u.u.u.t.v.w.e.1.x.h.y.z.A.B.C.C.C.B.D.E.F.o.n.m.o q q l.",
"G.H.I.J.K.L.j.M.N.O.P.v v v v v Q.R.S.T.U.3.V.W.X.Y.Y.Y.Y.Y.Q.v.M.j.L.K.J.I.H.G.",
"Z.`. +.+++@+b.#+o.$+%+&+&+&+&+&+%+*+c.=+-+b.;+>+%+&+&+&+&+&+,+'+#+b.@+++.+ +`.Z.",
")+!+~+{+]+^+/+(+_+:+<+i i i i i i [+}+|+1+2+3+<+i i i i i <+:+_+(+/+^+]+{+~+!+)+",
"4+5+q o 6+7+8+9+0+a+v [ [ [ [ [ b+c+d+e+f+g+h+i+j+k+l+[ [ v a+0+9+8+7+6+o q 5+4+",
"m+n+r o+m.p+q+r+s+t+u+[ [ [ [ v+w+x+y+z+A+B+C+D+E+F+G+l+[ u+t+s+r+q+p+m.o+r n+m+",
"H+I+q o+m.J+K+L+M+N+O+v+v+v+v+P+Q+R+S+T+U+S+V+W+X+Y+Z+`+v+O+N+M+L+K+J+m.o+q I+H+",
" @.@q o+m.+@3.3.3.3.3.3.3.3.3.@@#@$@%@&@*@=@-@;@>@,@'@)@!@!@!@!@~@{@p+m.o+q .@ @",
"l.r q o+m.p+]@^@^@^@^@^@^@^@^@/@(@_@:@<@[@}@|@1@2@3@4@5@6@v v v M 7@8@m.o+q r l.",
"l.9@q o+m.J+0@[.[.[.[.[.[.[.[.a@b@c@d@e@f@g@h@i@j@k@l@m@n@[ [ [ [ 6@8@m.o+q 9@l.",
"o@p@q@r@s@t@u@v@w@w@w@w@w@w@w@x@y@z@A@B@C@D@E@E@F@G@H@I@J@K@K@K@L@M@t@s@r@q@p@o@",
"N@O@P@Q@R@o.S@T@U@U@U@U@U@U@U@V@W@X@Y@Z@`@ #.#+#@###$#%#T@T@T@T@T@&#o.R@Q@P@O@N@",
"*#J.I.=#-#;#>#M v v v v v v v ,#'#)#!#~#{#]#^#/#(#{#_#:#v v v v M >#;#-#=#I.J.*#",
"<#[#r o+}#8@L@|#1#1#2#1#3#4#[ v+5#6#7#8#9#0#a#b#c#9#_#d#[ [ [ [ [ e#8@}#o+r [#<#",
" @f#q o+m.J+g#h#i#j#k#l#m#n#o#p#q#r#s#t#u#v#w#9#x#y#z#A#B#C#C#C#D#E#J+m.o+q f# @",
"4+5+q o+m.+@F#G#H#I#J#H#K#L#M#N#O#P#Q#R#S#T#U#V#W#X#Y#Z#`# $ $ $.$+$p+m.o+q 5+4+",
"@$#$q o+m.+@$$%$&$*$*$=$=$-$;$>$,$'$)$!$~${$]$^$/$($_$:$<$[$}$N+M |$8@m.o+q #$@$",
"l.q q o+m.+@1$2$*$*$*$3$4$5$6$7$8$9$0$a$b$c$d$e$f$g$h$i$j$k$l$m$[ n$8@m.o+q q l.",
"o$p$o G q$p+$$2$*$*$*$*$4$r$s$t$u$v$w$x$y$z$A$B$C$D$E$F$G$H$I$J$K$L$8@q$G o p$o$",
"M$N$O$P$Q$R$S$2$T$*$*$U$V$W$X$X$Y$Z$`$ %.%+%@%#%$%%%&%*%*%=%-%*%*%(.;%Q$P$O$N$M$",
">%,%'%)%!%~%{%2$]%*$*$^%4$/%[ [ (%_%:%<%[%}%|%1%2%3%4%5%5%5%5%0@6%7%8%!%)%'%,%>%",
"9%0%q q a%8@b%c%d%d%d%e%f%:#[ [ g%h%i%j%k%l%m%n%o%p%q%[.[.[.[.[.r%s%+@a%q q 0%9%",
"m+n+r o+m.J+t%u%v%v%v%v%w%x%x%y%z%A%B%j%k%C%D%E%F%G%H%I%I%I%I%I%J%K%+@m.o+r n+m+",
"L%M%q o+m.J+N%O%P%O%O%O%O%O%O%O%Q%R%S%T%(+U%m%V%W%X%X%X%X%X%Y%b+Z%`%8@m.o+q M%L%",
"<# &.&o+m.p++&@&#&3+$&[ [ [ [ [ [ %&&&k%*&=&-&;&[ [ [ [ [ $&3+#&@&>&p+m.o+.& &<#",
"l.q q o+m.7+,&'&)&!&v [ [ [ [ [ [ [ ~&{&]&^&/&[ [ [ [ [ [ v !&)&'&,&7+m.o+q q l.",
"l.q q o 6+p+(&_&:&<&Y.v v v v v v v [&}&|&1&Y.v v v v v v Y.<&:&_&(&p+6+o q q l.",
"2&3&8.4&5&p+h.6&7&8&9&9&9&9&9&9&9&9&0&a&|&b&9&9&9&9&9&9&9&9&8&7&h.h.p+5&4&8.3&2&",
"c&d&* e&f&: g&h&}.}.}.}.}.}.}.}.}.i&y.1.j&k&l&m&n&n&n&n&n&n&n&n&v+o&;+f&e&* d&c&",
"p&q&o r&s&8@t&[.N.N.N.N.N.N.N.N.N.h&u&T.v&w&v [ [ [ [ [ [ [ [ [ [ x&y&s&r&o q&p&",
"z&A&q o 6+p+B&C&C&C&C&C&C&C&C&C&D&E&k.T.F&G&H&v v v v v v v v v M I&8@6+o q A&z&",
"J&K&r o+m.+@h.h.h.h.h.h.h.h.h.h.h.h.h.1.j&7%L&M&M&M&M&M&M&M&M&M&N&e.p+m.o+r K&J&"};
