/* XPM */
static char * kingg_xpm[] = {
"40 40 248 2",
"  	c None",
". 	c #2F3451",
"+ 	c #2E2F50",
"@ 	c #2E3050",
"# 	c #2D2C4F",
"$ 	c #2D2A4E",
"% 	c #2C254D",
"& 	c #A0454A",
"* 	c #E98258",
"= 	c #F0B273",
"- 	c #875754",
"; 	c #F0B173",
"> 	c #E5BB7E",
", 	c #E6C689",
"' 	c #EEDD9D",
") 	c #B7AC83",
"! 	c #EEC686",
"~ 	c #A86555",
"{ 	c #F08C5C",
"] 	c #F7C47E",
"^ 	c #C98861",
"/ 	c #CCA270",
"( 	c #AA6454",
"_ 	c #89484E",
": 	c #F5E2A0",
"< 	c #DEC58B",
"[ 	c #FAEBA7",
"} 	c #2C244D",
"| 	c #9C434A",
"1 	c #E78157",
"2 	c #EFBD7B",
"3 	c #E99563",
"4 	c #EFBC7A",
"5 	c #EFBC7B",
"6 	c #ECB778",
"7 	c #E9B576",
"8 	c #F6E19E",
"9 	c #F3D290",
"0 	c #EBC383",
"a 	c #2F2D4F",
"b 	c #536479",
"c 	c #3C425B",
"d 	c #4C5F77",
"e 	c #56687D",
"f 	c #697B87",
"g 	c #647482",
"h 	c #758A94",
"i 	c #536071",
"j 	c #A1A5AB",
"k 	c #576676",
"l 	c #A2A5AB",
"m 	c #9EA0A5",
"n 	c #403A52",
"o 	c #4C4C62",
"p 	c #4D3D55",
"q 	c #524B61",
"r 	c #564F64",
"s 	c #5D5A69",
"t 	c #5B5B69",
"u 	c #636773",
"v 	c #555262",
"w 	c #79767F",
"x 	c #565162",
"y 	c #78727C",
"z 	c #666471",
"A 	c #3F3851",
"B 	c #8C3A54",
"C 	c #D8474B",
"D 	c #DB4849",
"E 	c #DD504C",
"F 	c #D2756A",
"G 	c #D3AA97",
"H 	c #E4BFAA",
"I 	c #DFBAA5",
"J 	c #C47369",
"K 	c #D95752",
"L 	c #363751",
"M 	c #9A404E",
"N 	c #DB4A49",
"O 	c #E46355",
"P 	c #ED735E",
"Q 	c #E3C8B4",
"R 	c #E4CDB9",
"S 	c #EF9882",
"T 	c #EF957F",
"U 	c #ED9A84",
"V 	c #DDC6B3",
"W 	c #E8816E",
"X 	c #2F3551",
"Y 	c #763755",
"Z 	c #D4484D",
"` 	c #EC725D",
" .	c #EF765F",
"..	c #F07961",
"+.	c #F17F64",
"@.	c #E4745F",
"#.	c #865B5A",
"$.	c #EC7E64",
"%.	c #EB765F",
"&.	c #372E4B",
"*.	c #362D4A",
"=.	c #352B4A",
"-.	c #3A304C",
";.	c #3C334E",
">.	c #353550",
",.	c #873E4F",
"'.	c #DD4E4B",
").	c #EB6F5B",
"!.	c #F07860",
"~.	c #F18165",
"{.	c #F17B61",
"].	c #F48567",
"^.	c #F28366",
"/.	c #565364",
"(.	c #CFDCDE",
"_.	c #D7E1E2",
":.	c #E3EAEA",
"<.	c #B5CACE",
"[.	c #D6E0E2",
"}.	c #90ADB7",
"|.	c #46455A",
"1.	c #827172",
"2.	c #DAA793",
"3.	c #6C4D59",
"4.	c #953657",
"5.	c #CA5852",
"6.	c #E05950",
"7.	c #EF775F",
"8.	c #ED735D",
"9.	c #EE755E",
"0.	c #EE745E",
"a.	c #DF6154",
"b.	c #323651",
"c.	c #4A4A5D",
"d.	c #9CB9C1",
"e.	c #96B4BD",
"f.	c #89A7B3",
"g.	c #8BA8B4",
"h.	c #7F99A9",
"i.	c #444158",
"j.	c #242048",
"k.	c #E4CDB8",
"l.	c #E9C9B3",
"m.	c #AE7B71",
"n.	c #2C3550",
"o.	c #B43C54",
"p.	c #B0494F",
"q.	c #E15950",
"r.	c #DD4D4A",
"s.	c #E46154",
"t.	c #D9544E",
"u.	c #BD4A4D",
"v.	c #D74A4A",
"w.	c #807576",
"x.	c #796D70",
"y.	c #9EBBC2",
"z.	c #809AA9",
"A.	c #8CA9B5",
"B.	c #809AAA",
"C.	c #2A254A",
"D.	c #D2BDAB",
"E.	c #504859",
"F.	c #B87A6E",
"G.	c #A26C66",
"H.	c #4A3751",
"I.	c #6B3853",
"J.	c #CA4350",
"K.	c #733952",
"L.	c #C74151",
"M.	c #B03858",
"N.	c #873755",
"O.	c #693952",
"P.	c #947875",
"Q.	c #756066",
"R.	c #62616F",
"S.	c #9DBAC2",
"T.	c #8CAAB5",
"U.	c #7F9AAA",
"V.	c #434057",
"W.	c #3F3750",
"X.	c #485A72",
"Y.	c #5F7082",
"Z.	c #6A7F8E",
"`.	c #718692",
" +	c #7F929A",
".+	c #8E9DA3",
"++	c #91A0A6",
"@+	c #B4B7BA",
"#+	c #B4B9BC",
"$+	c #81959D",
"%+	c #768A95",
"&+	c #6D808E",
"*+	c #627586",
"=+	c #41415A",
"-+	c #63707D",
";+	c #C8D9DC",
">+	c #474258",
",+	c #44455C",
"'+	c #494C61",
")+	c #4E5265",
"!+	c #515567",
"~+	c #555A6A",
"{+	c #5C5F6E",
"]+	c #5E616F",
"^+	c #6E6D78",
"/+	c #6F6D79",
"(+	c #575C6B",
"_+	c #525768",
":+	c #4B4F63",
"<+	c #403B54",
"[+	c #4C556A",
"}+	c #83A0AD",
"|+	c #423E55",
"1+	c #94B1BB",
"2+	c #95B2BB",
"3+	c #7F99AA",
"4+	c #384A62",
"5+	c #38636F",
"6+	c #376370",
"7+	c #396871",
"8+	c #3C7776",
"9+	c #386771",
"0+	c #3A6C73",
"a+	c #386370",
"b+	c #37596A",
"c+	c #3E3B54",
"d+	c #3C324D",
"e+	c #839DAC",
"f+	c #849EAC",
"g+	c #2D7A85",
"h+	c #2E6679",
"i+	c #3B5262",
"j+	c #3C5564",
"k+	c #3D6067",
"l+	c #3C5563",
"m+	c #3C5864",
"n+	c #395566",
"o+	c #267A89",
"p+	c #3D485C",
"q+	c #46455B",
"r+	c #768C9B",
"s+	c #697C8F",
"t+	c #6A7D8F",
"u+	c #5F7489",
"v+	c #413E56",
"w+	c #32566E",
"x+	c #384B63",
"y+	c #3C4058",
"                                                                                ",
"                                                                                ",
"                                                                                ",
"                                                                                ",
"                                                                                ",
"                                                                                ",
"                                                                                ",
"                                                                                ",
"                                                                                ",
"                                                                                ",
"                                                                                ",
"                                                                                ",
"                                  . +     @ # $ %   #                           ",
"                                & * = - - ; > , ' ) ! #                         ",
"                                ~ { ] ^ / ] ( _ : < [ }                         ",
"                                | 1 2 3 4 5 6 7 8 9 0 a                         ",
"                                b c d e f g h i j k l m                         ",
"                              n o p q r s t u v w x y z                         ",
"                              A B C D E F G H H I J K L                         ",
"                                M N O P Q R S T U V W X                         ",
"                                Y Z `  ...+.@.#.$...%.X                         ",
"              &.*.=.-.*.;.      >.,.'.).!.~.{.].^.!.%.X                         ",
"            /.(._.:.<.[.}.|.  1.2.3.4.5.6.7.8.!.9.0.a.b.                        ",
"            c.d.e.f.g.e.h.i.j.k.l.m.n.o.p.q.r.s.t.u.v.w.x.                      ",
"            c.y.z.A.A.B.B.i.C.D.E.F.G.H.I.J.K.L.M.N.O.P.Q.  R.                  ",
"            c.S.A.A.A.T.U.V.W.X.Y.Z.`. +.+++@+#+$+%+&+*+=+-+;+>+                ",
"            c.S.A.A.A.A.U.V.A ,+'+)+!+~+{+]+^+/+(+_+)+:+<+[+}+|+                ",
"            c.S.1+A.A.2+3+i.      4+5+6+7+8+9+0+a+b+c+      d+                  ",
"            c.S.e+A.A.f+U.i.      g+h+i+j+k+l+m+n+o+p+                          ",
"            q+r+s+s+s+t+u+v+      w+              x+y+                          ",
"                                                                                ",
"                                                                                ",
"                                                                                ",
"                                                                                ",
"                                                                                ",
"                                                                                ",
"                                                                                ",
"                                                                                ",
"                                                                                ",
"                                                                                "};
