/* XPM */
static char * open_door_xpm[] = {
"40 40 371 2",
"  	c #886570",
". 	c #8F6F75",
"+ 	c #967D7E",
"@ 	c #967D7F",
"# 	c #8C6F75",
"$ 	c #8E7377",
"% 	c #8A6D72",
"& 	c #7C616B",
"* 	c #8B7073",
"= 	c #8A7174",
"- 	c #8A7779",
"; 	c #8A7375",
"> 	c #8A797B",
", 	c #8A7376",
"' 	c #886970",
") 	c #735C68",
"! 	c #86676F",
"~ 	c #8A7073",
"{ 	c #8A6F73",
"] 	c #8A7577",
"^ 	c #8B6D73",
"/ 	c #8C6D73",
"( 	c #8E6D74",
"_ 	c #755B69",
": 	c #C1918E",
"< 	c #C39490",
"[ 	c #C59993",
"} 	c #BA918D",
"| 	c #B48C89",
"1 	c #9C7577",
"2 	c #B18F86",
"3 	c #F9C3AA",
"4 	c #C49089",
"5 	c #F8C3AA",
"6 	c #FACAAE",
"7 	c #FACCB0",
"8 	c #FADEC2",
"9 	c #FAD2B6",
"0 	c #FAE4C8",
"a 	c #FAD4B8",
"b 	c #F2B6A1",
"c 	c #916F73",
"d 	c #EDB09E",
"e 	c #FAC9AE",
"f 	c #FAC9AD",
"g 	c #FAD8BC",
"h 	c #FAD2B7",
"i 	c #FADEC3",
"j 	c #FAE3C7",
"k 	c #FADFC4",
"l 	c #9C7477",
"m 	c #B28786",
"n 	c #B88C8A",
"o 	c #C2938F",
"p 	c #C0928E",
"q 	c #8D6C74",
"r 	c #B68B89",
"s 	c #A87B7C",
"t 	c #B19C93",
"u 	c #EEC2AE",
"v 	c #FCCBAF",
"w 	c #CCA594",
"x 	c #FBCAAE",
"y 	c #FBC9AD",
"z 	c #957878",
"A 	c #F7C7AC",
"B 	c #A87B7D",
"C 	c #AE7E82",
"D 	c #C49591",
"E 	c #9F797D",
"F 	c #7C5F6B",
"G 	c #B68B8A",
"H 	c #AB7C7D",
"I 	c #E4B9A8",
"J 	c #FBDBC0",
"K 	c #FBDBBF",
"L 	c #FBCBAF",
"M 	c #FBC7AC",
"N 	c #C7988D",
"O 	c #F6BEA7",
"P 	c #927275",
"Q 	c #F1B9A3",
"R 	c #B98487",
"S 	c #BA8D8B",
"T 	c #A97C7D",
"U 	c #E3B9A8",
"V 	c #FAD8BE",
"W 	c #FBCCB0",
"X 	c #FBC8AD",
"Y 	c #F2B3A0",
"Z 	c #EBA096",
"` 	c #BD7E7F",
" .	c #BE7E7F",
"..	c #ECA196",
"+.	c #EDA598",
"@.	c #ECA598",
"#.	c #E89891",
"$.	c #8E676F",
"%.	c #E4948F",
"&.	c #B88A89",
"*.	c #957D7E",
"=.	c #8B7478",
"-.	c #B38C85",
";.	c #FCCDB2",
">.	c #FBCDB1",
",.	c #FBC9AE",
"'.	c #F0B09F",
").	c #E4908D",
"!.	c #DF8486",
"~.	c #B26B76",
"{.	c #83606C",
"].	c #946670",
"^.	c #936670",
"/.	c #765B69",
"(.	c #92656F",
"_.	c #866971",
":.	c #BE948F",
"<.	c #9D7778",
"[.	c #EDB3A0",
"}.	c #FBCBAE",
"|.	c #F1B19F",
"1.	c #E4908C",
"2.	c #D38284",
"3.	c #835F6B",
"4.	c #785B69",
"5.	c #936672",
"6.	c #976775",
"7.	c #745B69",
"8.	c #6E5967",
"9.	c #9D7678",
"0.	c #BC8F8C",
"a.	c #B58A88",
"b.	c #AC8781",
"c.	c #FCCAAE",
"d.	c #FAC8AD",
"e.	c #E79991",
"f.	c #D48384",
"g.	c #7B5D6A",
"h.	c #6D5967",
"i.	c #7B5D6C",
"j.	c #9D6976",
"k.	c #A66D79",
"l.	c #795D6A",
"m.	c #896970",
"n.	c #F2B6A2",
"o.	c #F0B09E",
"p.	c #E38D8B",
"q.	c #815F6B",
"r.	c #6F5967",
"s.	c #7A5D6B",
"t.	c #815F6C",
"u.	c #7C5D6B",
"v.	c #715A68",
"w.	c #EBA297",
"x.	c #C87C80",
"y.	c #815F6E",
"z.	c #A26B79",
"A.	c #AE717B",
"B.	c #A56C79",
"C.	c #7D5E6C",
"D.	c #8A626F",
"E.	c #89626F",
"F.	c #7E5E6C",
"G.	c #8A6C71",
"H.	c #F7BEA7",
"I.	c #FDCCAF",
"J.	c #FAC4AA",
"K.	c #EB9C93",
"L.	c #8D646E",
"M.	c #725A68",
"N.	c #A36B79",
"O.	c #A86D7A",
"P.	c #7F5E6C",
"Q.	c #87616F",
"R.	c #AA6F7B",
"S.	c #AF717C",
"T.	c #775E6A",
"U.	c #AA7F7D",
"V.	c #B08E85",
"W.	c #AC8480",
"X.	c #A57176",
"Y.	c #705A68",
"Z.	c #88626E",
"`.	c #815F6D",
" +	c #735A69",
".+	c #83606D",
"++	c #82646D",
"@+	c #DAA194",
"#+	c #E4B8A1",
"$+	c #DEA998",
"%+	c #D28886",
"&+	c #88626D",
"*+	c #6E5A68",
"=+	c #725A69",
"-+	c #916473",
";+	c #A16B77",
">+	c #926573",
",+	c #775B6A",
"'+	c #956674",
")+	c #A26B77",
"!+	c #F9C8AD",
"~+	c #EBA196",
"{+	c #8F6670",
"]+	c #7F929B",
"^+	c #657383",
"/+	c #87616E",
"(+	c #AE707B",
"_+	c #AD707B",
":+	c #AB6F7B",
"<+	c #7A5D6A",
"[+	c #AC707B",
"}+	c #8B797A",
"|+	c #FAE2C6",
"1+	c #8F6570",
"2+	c #80939C",
"3+	c #717E8C",
"4+	c #7B5D6B",
"5+	c #84606D",
"6+	c #8B7779",
"7+	c #FADDC2",
"8+	c #8F646F",
"9+	c #785C6B",
"0+	c #85616E",
"a+	c #9F6A78",
"b+	c #A96E7A",
"c+	c #825F6D",
"d+	c #8B7376",
"e+	c #FAD3B8",
"f+	c #866070",
"g+	c #9A6974",
"h+	c #9A6874",
"i+	c #9B6974",
"j+	c #8C6371",
"k+	c #8E6372",
"l+	c #996874",
"m+	c #8B7577",
"n+	c #FAD7BC",
"o+	c #8F646E",
"p+	c #6C5866",
"q+	c #6A5866",
"r+	c #6B5866",
"s+	c #86606F",
"t+	c #916571",
"u+	c #906571",
"v+	c #805E6D",
"w+	c #856070",
"x+	c #8F6472",
"y+	c #755B6A",
"z+	c #795C6A",
"A+	c #A76D7A",
"B+	c #A16B78",
"C+	c #90646F",
"D+	c #A36C78",
"E+	c #A86E79",
"F+	c #87686F",
"G+	c #F0B8A3",
"H+	c #E3938E",
"I+	c #8E646E",
"J+	c #936574",
"K+	c #AA6F7A",
"L+	c #AB6F7A",
"M+	c #9F6A77",
"N+	c #7A5C6B",
"O+	c #9B6877",
"P+	c #8D666F",
"Q+	c #755B68",
"R+	c #7C5E6B",
"S+	c #735B69",
"T+	c #F5BDA6",
"U+	c #E79790",
"V+	c #8F656F",
"W+	c #976675",
"X+	c #825F6E",
"Y+	c #886170",
"Z+	c #A86E7A",
"`+	c #8B7476",
" @	c #ECA397",
".@	c #A96E79",
"+@	c #8E6470",
"@@	c #6E5866",
"#@	c #6C5867",
"$@	c #976773",
"%@	c #8B7A7B",
"&@	c #9E6977",
"*@	c #86616F",
"=@	c #70707E",
"-@	c #70717F",
";@	c #6E5B69",
">@	c #707381",
",@	c #706D7B",
"'@	c #6D5866",
")@	c #8E6371",
"!@	c #FAD3B7",
"~@	c #7C5D6C",
"{@	c #84606E",
"]@	c #677A89",
"^@	c #718492",
"/@	c #6E5D6B",
"(@	c #708694",
"_@	c #687685",
":@	c #765B6A",
"<@	c #FADDC1",
"[@	c #617485",
"}@	c #708391",
"|@	c #6F8493",
"1@	c #627080",
"2@	c #835F6F",
"3@	c #8A6271",
"4@	c #8B7174",
"5@	c #FACDB1",
"6@	c #A76E79",
"7@	c #926572",
"8@	c #6C5967",
"9@	c #9C6975",
"0@	c #EBA397",
"a@	c #735B68",
"b@	c #966773",
"c@	c #8A6E72",
"d@	c #F9C5AB",
"e@	c #EBA095",
"f@	c #9D6A76",
"g@	c #7E626C",
"h@	c #CC968C",
"i@	c #D5AC99",
"j@	c #CF9D90",
"k@	c #C48181",
"l@	c #84606C",
"m@	c #83606E",
"n@	c #7B606B",
"o@	c #BB8B85",
"p@	c #C39D8F",
"q@	c #BE9188",
"r@	c #B5797C",
"s@	c #805F6B",
"t@	c #795C6B",
"u@	c #8E6471",
"v@	c #835F6E",
"w@	c #6F5968",
"x@	c #7F5F6B",
"y@	c #F8C1A9",
"z@	c #FAC6AC",
"A@	c #EB9E94",
"B@	c #91656F",
"C@	c #916572",
"D@	c #AC6F7B",
"E@	c #6F5866",
"F@	c #785C6A",
"G@	c #8B7275",
"H@	c #FACEB3",
"I@	c #8C6272",
"J@	c #A46C78",
"K@	c #A26B78",
"L@	c #7F5E6D",
"M@	c #627182",
"N@	c #707F8D",
"O@	c #6F808E",
"P@	c #636E7E",
"Q@	c #736C78",
"R@	c #756674",
"S@	c #966675",
"T@	c #8D6470",
"U@	c #839AA3",
"V@	c #6C7F8D",
"W@	c #787E88",
"X@	c #6B6978",
"Y@	c #916472",
"Z@	c #896B71",
"`@	c #F5BBA5",
" #	c #F8C1A8",
".#	c #E99A92",
"+#	c #6D5765",
"  . . + + @ # $ % & & % * = - ; > , ' ) ! ~ { ] , - > - % & & % ^ / . . . . ( _ ",
": < < [ } | 1 2 3 4 4 5 6 7 8 9 0 a b c d e f g h i j k 5 4 4 3 2 l m n o < p q ",
"< < < r s t u v v w w v x x x x y x x z A x x x x x y x v w w v v u t B C D E F ",
"< < G H I J K L M N N M v L L L L v O P Q L L L L L L v M N N M L K J I H G < . ",
"R S T U V W X Y Z `  ...+.@.@.@.@.+.#.$.%.@.@.@.@.@.@.+... .` Z Y X W V U T &.  ",
"*.=.-.;.>.,.'.).!.~.{.].^.^.^.^.^.^.^./.(.^.^.^.^.^.^.^.].{.~.!.).'.,.>.;.-._.. ",
":.<.[.}.x |.1.2.3.4.5.6.7.8.8.8.8.8.8.8.8.8.8.8.8.8.8.7.6.5.4.3.2.1.|.x }.[.9.0.",
"a.b.c.x d.e.f.g.h.i.j.k.l.8.8.8.8.8.8.8.8.8.8.8.8.8.8.l.k.j.i.8.g.f.e.d.x c.b.a.",
"m.n.x }.o.p.q.r.s.t.u.v.8.8.8.8.8.8.8.8.8.8.8.8.8.8.8.8.r.8.h.h.8.q.p.o.}.x n.m.",
"* x x v w.x.g.y.z.A.B.C.8.8.8.8.8.8.8.8.8.8.8.8.8.8.8.8.8.g.D.E.F.g.x.w.v x x * ",
"G.H.I.J.K.L.M.N.A.A.O.P.8.8.8.8.8.8.8.8.8.8.8.8.8.8.8.8.h.Q.R.S.N.M.L.K.J.I.H.G.",
"T.U.V.W.X.g.Y.E.Z.Z.`.v.8.8.8.8.8.8.8.8.8.8.8.8.8.8.8.8.8. +.+Z.E.Y.g.X.W.V.U.T.",
"++@+#+$+%+&+*+=+-+;+;+>+ +8.8.8.8.8.8.8.8.8.8.8.8.8.8.8.,+'+)+-+=+*+&+%+$+#+@+++",
"{ !+x y ~+{+]+^+/+(+_+:+<+8.8.8.8.8.8.8.8.8.8.8.8.8.8.8..+[+(+/+^+]+{+~+y x !+{ ",
"}+|+y L w.1+2+3+/+(+_+_+4+8.8.8.8.8.8.8.8.8.8.8.8.8.8.8.5+(+(+/+3+2+1+w.L y |+}+",
"6+7+x L w.8+9+0+a+(+(+b+<+8.8.8.8.8.8.8.8.8.8.8.8.8.8.8.c+:+(+a+0+9+8+w.L x 7+6+",
"d+e+x L w.8+f+g+g+h+i+j+=+8.8.8.8.8.8.8.8.8.8.8.8.8.8.8.7.k+h+l+l+f+8+w.L x e+d+",
"m+n+x L w.o+p+q+q+q+r+h.8.8.8.8.8.8.8.8.8.8.8.8.8.8.8.v.s+t+t+t+u+v+8+w.L x n+m+",
"* y x L w.8+w+h+h+i+x+y+8.8.8.8.8.8.8.8.8.8.8.8.8.8.8.z+A+(+(+(+(+B+C+w.L x y * ",
"* e x L w.C+D+_+_+(+:+`.8.8.8.8.8.8.8.8.8.8.8.8.8.8.8.4+_+_+_+_+_+E+C+w.L x e * ",
"F+d A G+H+I+J+K+K+L+M+N+8.8.8.8.8.8.8.8.8.8.8.8.8.8.8._ O+L+K+K+K+J+I+H+G+A d F+",
") c z P P+Q+_ u.R+s.S+r.8.8.8.8.8.8.8.8.8.8.8.8.8.8.8.8.v.M._ 4+u._ Q+P+P z c ) ",
"' b x T+U+V+W+[+_+B.X+h.8.8.8.8.8.8.8.8.8.8.8.8.8.8.8.8.8.h.Y+Z+[+W+V+U+T+x b ' ",
"`+a x v  @C+.@_+_+A.+@h.@@@@8.8.8.8.8.8.8.8.8.8.8.8.8.@@@@#@$@(+_+.@C+ @v x a `+",
"%@0 y L w.C+&@(+(+b+*@h.=@-@*+8.8.8.8.8.8.8.8.8.8.8.;@>@,@'@)@:+(+&@C+w.L y 0 %@",
"d+!@x L w.8+~@E.E.{@7.8.]@^@*+8.8.8.8.8.8.8.8.8.8.8./@(@_@@@:@0+Z.i.8+w.L x !@d+",
"6+<@x L w.o+8.8.8.8.8.8.[@}@*+8.8.8.8.8.8.8.8.8.8.8./@|@1@@@h.2@j.3@8+w.L x <@6+",
"4@5@x L w.o+v.J+6@7@8@8.[@}@*+8.8.8.8.8.8.8.8.8.8.8./@|@1@@@8@9@_+k.C+w.L x 5@4@",
"* x x L 0@o+a@Z+(+b@#@8.[@}@*+8.8.8.8.8.8.8.8.8.8.8./@|@1@@@8@9@_+k.C+0@L x x * ",
"c@d@v d.e@8+Y.k+;++@h.8.[@}@*+8.8.8.8.8.8.8.8.8.8.8./@|@1@@@h.2@f@3@C+e@d.v d@c@",
"g@h@i@j@k@l@~@Z.Z.m@7.8.[@}@*+8.8.8.8.8.8.8.8.8.8.8./@|@1@@@8.p+p+h.l@k@j@i@h@g@",
"n@o@p@q@r@s@&@(+(+b+*@h.[@}@*+8.8.8.8.8.8.8.8.8.8.8./@|@1@@@t@u@v@w@x@r@q@p@o@n@",
"% y@I.z@A@B@.@_+_+A.+@h.[@}@*+8.8.8.8.8.8.8.8.8.8.8./@|@1@'@C@D@B.a@8+A@z@I.y@% ",
"6+8 x v  @C+W+[+_+B.X+h.[@}@*+8.8.8.8.8.8.8.8.8.8.8./@|@1@'@Y+Z+O+M.o+ @v x 8 6+",
"}+|+y L w.o+_ u.R+l.v.8.[@}@*+8.8.8.8.8.8.8.8.8.8.8./@|@1@E@7.4+F@Y.o+w.L y |+}+",
"G@H@x L w.8+I@J@b+K@L@h.M@N@*+8.8.8.8.8.8.8.8.8.8.8./@O@P@v+K@b+J@I@8+w.L x H@G@",
"6+7+x L w.8+Q@R@S@A.T@h.8.8.8.8.8.8.8.8.8.8.8.8.8.8.8.8.h.T@A.S@R@Q@8+w.L x 7+6+",
"* y x L w.{+U@V@.+S.T@h.8.8.8.8.8.8.8.8.8.8.8.8.8.8.8.8.h.T@S..+V@U@{+w.L x y * ",
"* x x v  @V+W@X@Y@R.*@h.8.8.8.8.8.8.8.8.8.8.8.8.8.8.8.8.h.*@R.Y@X@W@V+ @v x x * ",
"Z@`@I. #.#8++#r.v+.+ +8.8.8.8.8.8.8.8.8.8.8.8.8.8.8.8.8.8. +.+v+r.+#8+.# #I.`@Z@"};
